<svg width="75" height="72" viewBox="0 0 75 72" fill="none" xmlns="http://www.w3.org/2000/svg">
<rect width="48" height="48" rx="24" transform="matrix(-1 0 0 1 75 0)" fill="url(#paint0_linear_3251_34528)"/>
<path d="M62 57H54C53.7348 57 53.4804 56.8946 53.2929 56.7071C53.1054 56.5196 53 56.2652 53 56C53.002 54.994 52.7509 54.0036 52.27 53.12C52.1806 53.0059 52.117 52.8736 52.0838 52.7325C52.0506 52.5914 52.0484 52.4447 52.0775 52.3026C52.1066 52.1606 52.1662 52.0265 52.2523 51.9098C52.3383 51.7931 52.4487 51.6965 52.5758 51.6267C52.7029 51.5569 52.8437 51.5156 52.9883 51.5056C53.133 51.4956 53.2781 51.5172 53.4136 51.5689C53.5491 51.6206 53.6717 51.7011 53.7729 51.8049C53.8742 51.9087 53.9517 52.0333 54 52.17C54.4879 53.0461 54.8068 54.0061 54.94 55H61V40.24L55.22 28.66C54.9706 28.1604 54.5866 27.7402 54.1114 27.447C53.6361 27.1537 53.0884 26.9989 52.53 27H37V55H39.06C39.2254 53.7076 39.704 52.4751 40.4542 51.4097C41.2043 50.3443 42.2034 49.4783 43.3644 48.887C44.5255 48.2956 45.8134 47.9968 47.1162 48.0165C48.4191 48.0362 49.6974 48.3738 50.84 49C51.0734 49.1326 51.2445 49.3525 51.3158 49.6113C51.3871 49.8701 51.3526 50.1466 51.22 50.38C51.0874 50.6134 50.8675 50.7845 50.6087 50.8558C50.3499 50.9271 50.0734 50.8926 49.84 50.76C48.9293 50.2706 47.9076 50.0248 46.8739 50.0465C45.8403 50.0682 44.8298 50.3567 43.9404 50.8838C43.051 51.411 42.3129 52.1591 41.7978 53.0555C41.2826 53.9519 41.0078 54.9661 41 56C41 56.2652 40.8946 56.5196 40.7071 56.7071C40.5196 56.8946 40.2652 57 40 57H36C35.7348 57 35.4804 56.8946 35.2929 56.7071C35.1054 56.5196 35 56.2652 35 56V26C35 25.7348 35.1054 25.4804 35.2929 25.2929C35.4804 25.1054 35.7348 25 36 25H52.53C53.4578 25 54.3673 25.2582 55.1567 25.7456C55.9461 26.2331 56.5844 26.9305 57 27.76L62.89 39.55C62.9614 39.6893 62.9991 39.8435 63 40V56C63 56.2652 62.8946 56.5196 62.7071 56.7071C62.5196 56.8946 62.2652 57 62 57Z" fill="#222429"/>
<path d="M46.9997 64C45.7773 64.005 44.5701 63.7299 43.4707 63.1957C42.3713 62.6615 41.4089 61.8825 40.6574 60.9185C39.9059 59.9545 39.3853 58.8311 39.1356 57.6346C38.8858 56.438 38.9136 55.2002 39.2167 54.016C39.5199 52.8319 40.0903 51.733 40.8843 50.8036C41.6782 49.8743 42.6746 49.1392 43.7969 48.6549C44.9192 48.1706 46.1375 47.9498 47.3583 48.0096C48.5792 48.0695 49.7701 48.4083 50.8397 49C51.073 49.1326 51.2442 49.3525 51.3155 49.6113C51.3867 49.8701 51.3523 50.1466 51.2197 50.38C51.0871 50.6134 50.8672 50.7845 50.6084 50.8558C50.3496 50.9271 50.073 50.8926 49.8397 50.76C48.5729 50.0682 47.0991 49.8562 45.6887 50.1629C44.2783 50.4697 43.0257 51.2746 42.1607 52.43C41.2956 53.5855 40.8761 55.0141 40.9791 56.4538C41.082 57.8935 41.7005 59.2479 42.7211 60.2685C43.7418 61.2891 45.0961 61.9076 46.5359 62.0106C47.9756 62.1135 49.4042 61.694 50.5596 60.829C51.7151 59.9639 52.52 58.7114 52.8267 57.3009C53.1335 55.8905 52.9215 54.4168 52.2297 53.15C52.0997 52.9153 52.0683 52.6385 52.1424 52.3807C52.2165 52.1228 52.3899 51.905 52.6247 51.775C52.8594 51.645 53.1361 51.6136 53.394 51.6877C53.6518 51.7618 53.8697 51.9353 53.9997 52.17C54.6631 53.3866 54.9991 54.7547 54.9748 56.1403C54.9505 57.5259 54.5667 58.8814 53.861 60.074C53.1553 61.2666 52.152 62.2555 50.9492 62.9437C49.7464 63.6319 48.3854 63.9959 46.9997 64V64Z" fill="#222429"/>
<path d="M47 60C46.2089 60 45.4355 59.7654 44.7777 59.3259C44.1199 58.8864 43.6072 58.2616 43.3045 57.5307C43.0017 56.7998 42.9225 55.9956 43.0769 55.2196C43.2312 54.4437 43.6122 53.731 44.1716 53.1716C44.731 52.6122 45.4437 52.2312 46.2196 52.0769C46.9956 51.9225 47.7998 52.0017 48.5307 52.3045C49.2616 52.6072 49.8864 53.1199 50.3259 53.7777C50.7654 54.4355 51 55.2089 51 56C51 57.0609 50.5786 58.0783 49.8284 58.8284C49.0783 59.5786 48.0609 60 47 60ZM47 54C46.6044 54 46.2178 54.1173 45.8889 54.3371C45.56 54.5568 45.3036 54.8692 45.1522 55.2346C45.0009 55.6001 44.9613 56.0022 45.0384 56.3902C45.1156 56.7781 45.3061 57.1345 45.5858 57.4142C45.8655 57.6939 46.2219 57.8844 46.6098 57.9616C46.9978 58.0387 47.3999 57.9991 47.7654 57.8478C48.1308 57.6964 48.4432 57.44 48.6629 57.1111C48.8827 56.7822 49 56.3956 49 56C49 55.4696 48.7893 54.9609 48.4142 54.5858C48.0391 54.2107 47.5304 54 47 54Z" fill="#222429"/>
<path d="M14 64C12.4178 64 10.871 63.5308 9.55544 62.6518C8.23985 61.7727 7.21447 60.5233 6.60897 59.0615C6.00347 57.5997 5.84504 55.9911 6.15372 54.4393C6.4624 52.8874 7.22433 51.462 8.34315 50.3432C9.46197 49.2243 10.8874 48.4624 12.4393 48.1537C13.9911 47.845 15.5997 48.0035 17.0615 48.609C18.5233 49.2145 19.7727 50.2399 20.6518 51.5554C21.5308 52.871 22 54.4178 22 56C22 58.1217 21.1571 60.1566 19.6569 61.6569C18.1566 63.1571 16.1217 64 14 64V64ZM14 50C12.8133 50 11.6533 50.3519 10.6666 51.0112C9.67989 51.6705 8.91085 52.6075 8.45673 53.7039C8.0026 54.8003 7.88378 56.0067 8.11529 57.1705C8.3468 58.3344 8.91825 59.4035 9.75736 60.2426C10.5965 61.0818 11.6656 61.6532 12.8295 61.8847C13.9933 62.1162 15.1997 61.9974 16.2961 61.5433C17.3925 61.0892 18.3295 60.3201 18.9888 59.3334C19.6481 58.3467 20 57.1867 20 56C20 54.4087 19.3679 52.8826 18.2426 51.7574C17.1174 50.6321 15.5913 50 14 50Z" fill="#222429"/>
<path d="M14 60C13.2089 60 12.4355 59.7654 11.7777 59.3259C11.1199 58.8864 10.6072 58.2616 10.3045 57.5307C10.0017 56.7998 9.92252 55.9956 10.0769 55.2196C10.2312 54.4437 10.6122 53.731 11.1716 53.1716C11.731 52.6122 12.4437 52.2312 13.2196 52.0769C13.9956 51.9225 14.7998 52.0017 15.5307 52.3045C16.2616 52.6072 16.8864 53.1199 17.3259 53.7777C17.7654 54.4355 18 55.2089 18 56C18 57.0609 17.5786 58.0783 16.8284 58.8284C16.0783 59.5786 15.0609 60 14 60ZM14 54C13.6044 54 13.2178 54.1173 12.8889 54.3371C12.56 54.5568 12.3036 54.8692 12.1522 55.2346C12.0009 55.6001 11.9613 56.0022 12.0384 56.3902C12.1156 56.7781 12.3061 57.1345 12.5858 57.4142C12.8655 57.6939 13.2219 57.8844 13.6098 57.9616C13.9978 58.0387 14.3999 57.9991 14.7654 57.8478C15.1308 57.6964 15.4432 57.44 15.6629 57.1111C15.8827 56.7822 16 56.3956 16 56C16 55.4696 15.7893 54.9609 15.4142 54.5858C15.0391 54.2107 14.5304 54 14 54Z" fill="#222429"/>
<path d="M62 41H42C41.7348 41 41.4804 40.8946 41.2929 40.7071C41.1054 40.5196 41 40.2652 41 40V30C41 29.7348 41.1054 29.4804 41.2929 29.2929C41.4804 29.1054 41.7348 29 42 29H45C45.2652 29 45.5196 29.1054 45.7071 29.2929C45.8946 29.4804 46 29.7348 46 30C46 30.2652 45.8946 30.5196 45.7071 30.7071C45.5196 30.8946 45.2652 31 45 31H43V39H60.38L56.38 31H49C48.7348 31 48.4804 30.8946 48.2929 30.7071C48.1054 30.5196 48 30.2652 48 30C48 29.7348 48.1054 29.4804 48.2929 29.2929C48.4804 29.1054 48.7348 29 49 29H57C57.1847 29.0006 57.3656 29.0522 57.5227 29.1493C57.6798 29.2464 57.8069 29.3851 57.89 29.55L62.89 39.55C62.9667 39.7022 63.0032 39.8715 62.9961 40.0419C62.989 40.2122 62.9384 40.3778 62.8492 40.5231C62.7601 40.6684 62.6352 40.7885 62.4866 40.8719C62.338 40.9554 62.1705 40.9995 62 41Z" fill="#222429"/>
<path d="M62 52H61C59.9391 52 58.9217 51.5786 58.1716 50.8284C57.4214 50.0783 57 49.0609 57 48C57 46.9391 57.4214 45.9217 58.1716 45.1716C58.9217 44.4214 59.9391 44 61 44H62C62.2652 44 62.5196 44.1054 62.7071 44.2929C62.8946 44.4804 63 44.7348 63 45V51C63 51.2652 62.8946 51.5196 62.7071 51.7071C62.5196 51.8946 62.2652 52 62 52ZM61 46C60.4696 46 59.9609 46.2107 59.5858 46.5858C59.2107 46.9609 59 47.4696 59 48C59 48.5304 59.2107 49.0391 59.5858 49.4142C59.9609 49.7893 60.4696 50 61 50V46Z" fill="#222429"/>
<path d="M36 57H32C31.7348 57 31.4804 56.8946 31.2929 56.7071C31.1054 56.5196 31 56.2652 31 56C31 55.7348 31.1054 55.4804 31.2929 55.2929C31.4804 55.1054 31.7348 55 32 55H35V46H12C11.7348 46 11.4804 45.8946 11.2929 45.7071C11.1054 45.5196 11 45.2652 11 45C11 44.7348 11.1054 44.4804 11.2929 44.2929C11.4804 44.1054 11.7348 44 12 44H36C36.2652 44 36.5196 44.1054 36.7071 44.2929C36.8946 44.4804 37 44.7348 37 45V56C37 56.2652 36.8946 56.5196 36.7071 56.7071C36.5196 56.8946 36.2652 57 36 57Z" fill="#222429"/>
<path d="M23 57H21C20.7348 57 20.4804 56.8946 20.2929 56.7071C20.1054 56.5196 20 56.2652 20 56C20 54.4087 19.3679 52.8826 18.2426 51.7574C17.1174 50.6321 15.5913 50 14 50C12.4087 50 10.8826 50.6321 9.75736 51.7574C8.63214 52.8826 8 54.4087 8 56C8 56.2652 7.89464 56.5196 7.70711 56.7071C7.51957 56.8946 7.26522 57 7 57H2C1.73478 57 1.48043 56.8946 1.29289 56.7071C1.10536 56.5196 1 56.2652 1 56V45C1 44.7348 1.10536 44.4804 1.29289 44.2929C1.48043 44.1054 1.73478 44 2 44H8C8.26522 44 8.51957 44.1054 8.70711 44.2929C8.89464 44.4804 9 44.7348 9 45C9 45.2652 8.89464 45.5196 8.70711 45.7071C8.51957 45.8946 8.26522 46 8 46H3V55H6.06C6.29867 53.0623 7.23769 51.2787 8.70017 49.9853C10.1627 48.6919 12.0476 47.978 14 47.978C15.9524 47.978 17.8373 48.6919 19.2998 49.9853C20.7623 51.2787 21.7013 53.0623 21.94 55H23C23.2652 55 23.5196 55.1054 23.7071 55.2929C23.8946 55.4804 24 55.7348 24 56C24 56.2652 23.8946 56.5196 23.7071 56.7071C23.5196 56.8946 23.2652 57 23 57Z" fill="#222429"/>
<path d="M28 57H27C26.7348 57 26.4804 56.8946 26.2929 56.7071C26.1054 56.5196 26 56.2652 26 56C26 55.7348 26.1054 55.4804 26.2929 55.2929C26.4804 55.1054 26.7348 55 27 55H28C28.2652 55 28.5196 55.1054 28.7071 55.2929C28.8946 55.4804 29 55.7348 29 56C29 56.2652 28.8946 56.5196 28.7071 56.7071C28.5196 56.8946 28.2652 57 28 57Z" fill="#222429"/>
<path d="M36 46H20C19.7348 46 19.4804 45.8946 19.2929 45.7071C19.1054 45.5196 19 45.2652 19 45V31C19 30.7348 19.1054 30.4804 19.2929 30.2929C19.4804 30.1054 19.7348 30 20 30H36C36.2652 30 36.5196 30.1054 36.7071 30.2929C36.8946 30.4804 37 30.7348 37 31V45C37 45.2652 36.8946 45.5196 36.7071 45.7071C36.5196 45.8946 36.2652 46 36 46ZM21 44H35V32H21V44Z" fill="#222429"/>
<path d="M36 32H20C19.7348 32 19.4804 31.8946 19.2929 31.7071C19.1054 31.5196 19 31.2652 19 31V26C19 25.7348 19.1054 25.4804 19.2929 25.2929C19.4804 25.1054 19.7348 25 20 25C20.2652 25 20.5196 25.1054 20.7071 25.2929C20.8946 25.4804 21 25.7348 21 26V30H35V18H21V22C21 22.2652 20.8946 22.5196 20.7071 22.7071C20.5196 22.8946 20.2652 23 20 23C19.7348 23 19.4804 22.8946 19.2929 22.7071C19.1054 22.5196 19 22.2652 19 22V17C19 16.7348 19.1054 16.4804 19.2929 16.2929C19.4804 16.1054 19.7348 16 20 16H36C36.2652 16 36.5196 16.1054 36.7071 16.2929C36.8946 16.4804 37 16.7348 37 17V31C37 31.2652 36.8946 31.5196 36.7071 31.7071C36.5196 31.8946 36.2652 32 36 32Z" fill="#222429"/>
<path d="M20 46H12C11.7348 46 11.4804 45.8946 11.2929 45.7071C11.1054 45.5196 11 45.2652 11 45C11 44.7348 11.1054 44.4804 11.2929 44.2929C11.4804 44.1054 11.7348 44 12 44H19V32H5V44H8C8.26522 44 8.51957 44.1054 8.70711 44.2929C8.89464 44.4804 9 44.7348 9 45C9 45.2652 8.89464 45.5196 8.70711 45.7071C8.51957 45.8946 8.26522 46 8 46H4C3.73478 46 3.48043 45.8946 3.29289 45.7071C3.10536 45.5196 3 45.2652 3 45V31C3 30.7348 3.10536 30.4804 3.29289 30.2929C3.48043 30.1054 3.73478 30 4 30H20C20.2652 30 20.5196 30.1054 20.7071 30.2929C20.8946 30.4804 21 30.7348 21 31V45C21 45.2652 20.8946 45.5196 20.7071 45.7071C20.5196 45.8946 20.2652 46 20 46Z" fill="#222429"/>
<path d="M30 23H26C25.7348 23 25.4804 22.8946 25.2929 22.7071C25.1054 22.5196 25 22.2652 25 22V17C25 16.7348 25.1054 16.4804 25.2929 16.2929C25.4804 16.1054 25.7348 16 26 16H30C30.2652 16 30.5196 16.1054 30.7071 16.2929C30.8946 16.4804 31 16.7348 31 17V22C31 22.2652 30.8946 22.5196 30.7071 22.7071C30.5196 22.8946 30.2652 23 30 23ZM27 21H29V18H27V21Z" fill="#222429"/>
<path d="M30 37H26C25.7348 37 25.4804 36.8946 25.2929 36.7071C25.1054 36.5196 25 36.2652 25 36V31C25 30.7348 25.1054 30.4804 25.2929 30.2929C25.4804 30.1054 25.7348 30 26 30H30C30.2652 30 30.5196 30.1054 30.7071 30.2929C30.8946 30.4804 31 30.7348 31 31V36C31 36.2652 30.8946 36.5196 30.7071 36.7071C30.5196 36.8946 30.2652 37 30 37ZM27 35H29V32H27V35Z" fill="#222429"/>
<path d="M14 37H10C9.73478 37 9.48043 36.8946 9.29289 36.7071C9.10536 36.5196 9 36.2652 9 36V31C9 30.7348 9.10536 30.4804 9.29289 30.2929C9.48043 30.1054 9.73478 30 10 30H14C14.2652 30 14.5196 30.1054 14.7071 30.2929C14.8946 30.4804 15 30.7348 15 31V36C15 36.2652 14.8946 36.5196 14.7071 36.7071C14.5196 36.8946 14.2652 37 14 37ZM11 35H13V32H11V35Z" fill="#222429"/>
<path d="M44 45H42C41.7348 45 41.4804 44.8946 41.2929 44.7071C41.1054 44.5196 41 44.2652 41 44C41 43.7348 41.1054 43.4804 41.2929 43.2929C41.4804 43.1054 41.7348 43 42 43H44C44.2652 43 44.5196 43.1054 44.7071 43.2929C44.8946 43.4804 45 43.7348 45 44C45 44.2652 44.8946 44.5196 44.7071 44.7071C44.5196 44.8946 44.2652 45 44 45Z" fill="#222429"/>
<defs>
<linearGradient id="paint0_linear_3251_34528" x1="-7.95" y1="55.4194" x2="70.3503" y2="35.2976" gradientUnits="userSpaceOnUse">
<stop stop-color="#FDBC5B"/>
<stop offset="0.512843" stop-color="#FFB443"/>
<stop offset="1" stop-color="#FFC700"/>
</linearGradient>
</defs>
</svg>
