<svg width="78" height="64" viewBox="0 0 78 64" fill="none" xmlns="http://www.w3.org/2000/svg">
<rect width="48" height="48" rx="24" transform="matrix(-1 0 0 1 48 7)" fill="url(#paint0_linear_3251_34518)"/>
<path d="M73 60H19C18.7348 60 18.4804 59.8946 18.2929 59.7071C18.1054 59.5196 18 59.2652 18 59V33C18 32.7348 18.1054 32.4804 18.2929 32.2929C18.4804 32.1054 18.7348 32 19 32C19.2652 32 19.5196 32.1054 19.7071 32.2929C19.8946 32.4804 20 32.7348 20 33V58H72V50C72 49.7348 72.1054 49.4804 72.2929 49.2929C72.4804 49.1054 72.7348 49 73 49C73.2652 49 73.5196 49.1054 73.7071 49.2929C73.8946 49.4804 74 49.7348 74 50V59C74 59.2652 73.8946 59.5196 73.7071 59.7071C73.5196 59.8946 73.2652 60 73 60Z" fill="#222429"/>
<path d="M73 47C72.7348 47 72.4804 46.8947 72.2929 46.7071C72.1054 46.5196 72 46.2652 72 46V20.59L46 6.14001L20 20.59V24C20 24.2652 19.8946 24.5196 19.7071 24.7071C19.5196 24.8947 19.2652 25 19 25C18.7348 25 18.4804 24.8947 18.2929 24.7071C18.1054 24.5196 18 24.2652 18 24V20C18.0003 19.8228 18.0477 19.6489 18.1373 19.496C18.2269 19.3431 18.3555 19.2168 18.51 19.13L45.51 4.13001C45.662 4.04224 45.8345 3.99603 46.01 3.99603C46.1855 3.99603 46.358 4.04224 46.51 4.13001L73.51 19.13C73.6607 19.2194 73.7854 19.3468 73.8714 19.4995C73.9574 19.6522 74.0017 19.8248 74 20V46C74 46.2652 73.8946 46.5196 73.7071 46.7071C73.5196 46.8947 73.2652 47 73 47Z" fill="#222429"/>
<path d="M19 30C18.7348 30 18.4804 29.8946 18.2929 29.7071C18.1054 29.5196 18 29.2652 18 29V28C18 27.7348 18.1054 27.4804 18.2929 27.2929C18.4804 27.1054 18.7348 27 19 27C19.2652 27 19.5196 27.1054 19.7071 27.2929C19.8946 27.4804 20 27.7348 20 28V29C20 29.2652 19.8946 29.5196 19.7071 29.7071C19.5196 29.8946 19.2652 30 19 30Z" fill="#222429"/>
<path d="M66 60H26C25.7348 60 25.4804 59.8946 25.2929 59.7071C25.1054 59.5196 25 59.2652 25 59V53C25 52.7348 25.1054 52.4804 25.2929 52.2929C25.4804 52.1054 25.7348 52 26 52C26.2652 52 26.5196 52.1054 26.7071 52.2929C26.8946 52.4804 27 52.7348 27 53V58H65V26H27V49C27 49.2652 26.8946 49.5196 26.7071 49.7071C26.5196 49.8946 26.2652 50 26 50C25.7348 50 25.4804 49.8946 25.2929 49.7071C25.1054 49.5196 25 49.2652 25 49V25C25 24.7348 25.1054 24.4804 25.2929 24.2929C25.4804 24.1054 25.7348 24 26 24H66C66.2652 24 66.5196 24.1054 66.7071 24.2929C66.8946 24.4804 67 24.7348 67 25V59C67 59.2652 66.8946 59.5196 66.7071 59.7071C66.5196 59.8946 66.2652 60 66 60Z" fill="#222429"/>
<path d="M66 31H60C59.7348 31 59.4804 30.8946 59.2929 30.7071C59.1054 30.5196 59 30.2652 59 30C59 29.7348 59.1054 29.4804 59.2929 29.2929C59.4804 29.1054 59.7348 29 60 29H65V26H27V29H56C56.2652 29 56.5196 29.1054 56.7071 29.2929C56.8946 29.4804 57 29.7348 57 30C57 30.2652 56.8946 30.5196 56.7071 30.7071C56.5196 30.8946 56.2652 31 56 31H26C25.7348 31 25.4804 30.8946 25.2929 30.7071C25.1054 30.5196 25 30.2652 25 30V25C25 24.7348 25.1054 24.4804 25.2929 24.2929C25.4804 24.1054 25.7348 24 26 24H66C66.2652 24 66.5196 24.1054 66.7071 24.2929C66.8946 24.4804 67 24.7348 67 25V30C67 30.2652 66.8946 30.5196 66.7071 30.7071C66.5196 30.8946 66.2652 31 66 31Z" fill="#222429"/>
<path d="M66 36H26C25.7348 36 25.4804 35.8946 25.2929 35.7071C25.1054 35.5196 25 35.2652 25 35V30C25 29.7348 25.1054 29.4804 25.2929 29.2929C25.4804 29.1054 25.7348 29 26 29H56C56.2652 29 56.5196 29.1054 56.7071 29.2929C56.8946 29.4804 57 29.7348 57 30C57 30.2652 56.8946 30.5196 56.7071 30.7071C56.5196 30.8946 56.2652 31 56 31H27V34H65V31H60C59.7348 31 59.4804 30.8946 59.2929 30.7071C59.1054 30.5196 59 30.2652 59 30C59 29.7348 59.1054 29.4804 59.2929 29.2929C59.4804 29.1054 59.7348 29 60 29H66C66.2652 29 66.5196 29.1054 66.7071 29.2929C66.8946 29.4804 67 29.7348 67 30V35C67 35.2652 66.8946 35.5196 66.7071 35.7071C66.5196 35.8946 66.2652 36 66 36Z" fill="#222429"/>
<path d="M55 21H37C36.7348 21 36.4804 20.8946 36.2929 20.7071C36.1054 20.5196 36 20.2652 36 20V16C36 15.7348 36.1054 15.4804 36.2929 15.2929C36.4804 15.1054 36.7348 15 37 15H40C40.2652 15 40.5196 15.1054 40.7071 15.2929C40.8946 15.4804 41 15.7348 41 16C41 16.2652 40.8946 16.5196 40.7071 16.7071C40.5196 16.8946 40.2652 17 40 17H38V19H54V17H44C43.7348 17 43.4804 16.8946 43.2929 16.7071C43.1054 16.5196 43 16.2652 43 16C43 15.7348 43.1054 15.4804 43.2929 15.2929C43.4804 15.1054 43.7348 15 44 15H55C55.2652 15 55.5196 15.1054 55.7071 15.2929C55.8946 15.4804 56 15.7348 56 16V20C56 20.2652 55.8946 20.5196 55.7071 20.7071C55.5196 20.8946 55.2652 21 55 21Z" fill="#222429"/>
<path d="M66 50H54C53.7348 50 53.4804 49.8946 53.2929 49.7071C53.1054 49.5196 53 49.2652 53 49V39C53 38.7348 53.1054 38.4804 53.2929 38.2929C53.4804 38.1054 53.7348 38 54 38H66C66.2652 38 66.5196 38.1054 66.7071 38.2929C66.8946 38.4804 67 38.7348 67 39V49C67 49.2652 66.8946 49.5196 66.7071 49.7071C66.5196 49.8946 66.2652 50 66 50ZM55 48H65V40H55V48Z" fill="#222429"/>
<path d="M54 60H42C41.7348 60 41.4804 59.8946 41.2929 59.7071C41.1054 59.5196 41 59.2652 41 59V49C41 48.7348 41.1054 48.4804 41.2929 48.2929C41.4804 48.1054 41.7348 48 42 48H54C54.2652 48 54.5196 48.1054 54.7071 48.2929C54.8946 48.4804 55 48.7348 55 49V59C55 59.2652 54.8946 59.5196 54.7071 59.7071C54.5196 59.8946 54.2652 60 54 60ZM43 58H53V50H43V58Z" fill="#222429"/>
<path d="M66 60H54C53.7348 60 53.4804 59.8946 53.2929 59.7071C53.1054 59.5196 53 59.2652 53 59V49C53 48.7348 53.1054 48.4804 53.2929 48.2929C53.4804 48.1054 53.7348 48 54 48H66C66.2652 48 66.5196 48.1054 66.7071 48.2929C66.8946 48.4804 67 48.7348 67 49V59C67 59.2652 66.8946 59.5196 66.7071 59.7071C66.5196 59.8946 66.2652 60 66 60ZM55 58H65V50H55V58Z" fill="#222429"/>
<path d="M48 52C47.7348 52 47.4804 51.8946 47.2929 51.7071C47.1054 51.5196 47 51.2652 47 51V49C47 48.7348 47.1054 48.4804 47.2929 48.2929C47.4804 48.1054 47.7348 48 48 48C48.2652 48 48.5196 48.1054 48.7071 48.2929C48.8946 48.4804 49 48.7348 49 49V51C49 51.2652 48.8946 51.5196 48.7071 51.7071C48.5196 51.8946 48.2652 52 48 52Z" fill="#222429"/>
<path d="M60 52C59.7348 52 59.4804 51.8946 59.2929 51.7071C59.1054 51.5196 59 51.2652 59 51V49C59 48.7348 59.1054 48.4804 59.2929 48.2929C59.4804 48.1054 59.7348 48 60 48C60.2652 48 60.5196 48.1054 60.7071 48.2929C60.8946 48.4804 61 48.7348 61 49V51C61 51.2652 60.8946 51.5196 60.7071 51.7071C60.5196 51.8946 60.2652 52 60 52Z" fill="#222429"/>
<path d="M60 42C59.7348 42 59.4804 41.8946 59.2929 41.7071C59.1054 41.5196 59 41.2652 59 41V39C59 38.7348 59.1054 38.4804 59.2929 38.2929C59.4804 38.1054 59.7348 38 60 38C60.2652 38 60.5196 38.1054 60.7071 38.2929C60.8946 38.4804 61 38.7348 61 39V41C61 41.2652 60.8946 41.5196 60.7071 41.7071C60.5196 41.8946 60.2652 42 60 42Z" fill="#222429"/>
<path d="M73 60H19C18.7348 60 18.4804 59.8946 18.2929 59.7071C18.1054 59.5196 18 59.2652 18 59V33C18 32.7348 18.1054 32.4804 18.2929 32.2929C18.4804 32.1054 18.7348 32 19 32C19.2652 32 19.5196 32.1054 19.7071 32.2929C19.8946 32.4804 20 32.7348 20 33V58H72V50C72 49.7348 72.1054 49.4804 72.2929 49.2929C72.4804 49.1054 72.7348 49 73 49C73.2652 49 73.5196 49.1054 73.7071 49.2929C73.8946 49.4804 74 49.7348 74 50V59C74 59.2652 73.8946 59.5196 73.7071 59.7071C73.5196 59.8946 73.2652 60 73 60Z" fill="#222429"/>
<path d="M73 47C72.7348 47 72.4804 46.8947 72.2929 46.7071C72.1054 46.5196 72 46.2652 72 46V20.59L46 6.14001L20 20.59V24C20 24.2652 19.8946 24.5196 19.7071 24.7071C19.5196 24.8947 19.2652 25 19 25C18.7348 25 18.4804 24.8947 18.2929 24.7071C18.1054 24.5196 18 24.2652 18 24V20C18.0003 19.8228 18.0477 19.6489 18.1373 19.496C18.2269 19.3431 18.3555 19.2168 18.51 19.13L45.51 4.13001C45.662 4.04224 45.8345 3.99603 46.01 3.99603C46.1855 3.99603 46.358 4.04224 46.51 4.13001L73.51 19.13C73.6607 19.2194 73.7854 19.3468 73.8714 19.4995C73.9574 19.6522 74.0017 19.8248 74 20V46C74 46.2652 73.8946 46.5196 73.7071 46.7071C73.5196 46.8947 73.2652 47 73 47Z" fill="#222429"/>
<path d="M19 30C18.7348 30 18.4804 29.8946 18.2929 29.7071C18.1054 29.5196 18 29.2652 18 29V28C18 27.7348 18.1054 27.4804 18.2929 27.2929C18.4804 27.1054 18.7348 27 19 27C19.2652 27 19.5196 27.1054 19.7071 27.2929C19.8946 27.4804 20 27.7348 20 28V29C20 29.2652 19.8946 29.5196 19.7071 29.7071C19.5196 29.8946 19.2652 30 19 30Z" fill="#222429"/>
<path d="M66 60H26C25.7348 60 25.4804 59.8946 25.2929 59.7071C25.1054 59.5196 25 59.2652 25 59V53C25 52.7348 25.1054 52.4804 25.2929 52.2929C25.4804 52.1054 25.7348 52 26 52C26.2652 52 26.5196 52.1054 26.7071 52.2929C26.8946 52.4804 27 52.7348 27 53V58H65V26H27V49C27 49.2652 26.8946 49.5196 26.7071 49.7071C26.5196 49.8946 26.2652 50 26 50C25.7348 50 25.4804 49.8946 25.2929 49.7071C25.1054 49.5196 25 49.2652 25 49V25C25 24.7348 25.1054 24.4804 25.2929 24.2929C25.4804 24.1054 25.7348 24 26 24H66C66.2652 24 66.5196 24.1054 66.7071 24.2929C66.8946 24.4804 67 24.7348 67 25V59C67 59.2652 66.8946 59.5196 66.7071 59.7071C66.5196 59.8946 66.2652 60 66 60Z" fill="#222429"/>
<path d="M66 31H60C59.7348 31 59.4804 30.8946 59.2929 30.7071C59.1054 30.5196 59 30.2652 59 30C59 29.7348 59.1054 29.4804 59.2929 29.2929C59.4804 29.1054 59.7348 29 60 29H65V26H27V29H56C56.2652 29 56.5196 29.1054 56.7071 29.2929C56.8946 29.4804 57 29.7348 57 30C57 30.2652 56.8946 30.5196 56.7071 30.7071C56.5196 30.8946 56.2652 31 56 31H26C25.7348 31 25.4804 30.8946 25.2929 30.7071C25.1054 30.5196 25 30.2652 25 30V25C25 24.7348 25.1054 24.4804 25.2929 24.2929C25.4804 24.1054 25.7348 24 26 24H66C66.2652 24 66.5196 24.1054 66.7071 24.2929C66.8946 24.4804 67 24.7348 67 25V30C67 30.2652 66.8946 30.5196 66.7071 30.7071C66.5196 30.8946 66.2652 31 66 31Z" fill="#222429"/>
<path d="M66 36H26C25.7348 36 25.4804 35.8946 25.2929 35.7071C25.1054 35.5196 25 35.2652 25 35V30C25 29.7348 25.1054 29.4804 25.2929 29.2929C25.4804 29.1054 25.7348 29 26 29H56C56.2652 29 56.5196 29.1054 56.7071 29.2929C56.8946 29.4804 57 29.7348 57 30C57 30.2652 56.8946 30.5196 56.7071 30.7071C56.5196 30.8946 56.2652 31 56 31H27V34H65V31H60C59.7348 31 59.4804 30.8946 59.2929 30.7071C59.1054 30.5196 59 30.2652 59 30C59 29.7348 59.1054 29.4804 59.2929 29.2929C59.4804 29.1054 59.7348 29 60 29H66C66.2652 29 66.5196 29.1054 66.7071 29.2929C66.8946 29.4804 67 29.7348 67 30V35C67 35.2652 66.8946 35.5196 66.7071 35.7071C66.5196 35.8946 66.2652 36 66 36Z" fill="#222429"/>
<path d="M55 21H37C36.7348 21 36.4804 20.8946 36.2929 20.7071C36.1054 20.5196 36 20.2652 36 20V16C36 15.7348 36.1054 15.4804 36.2929 15.2929C36.4804 15.1054 36.7348 15 37 15H40C40.2652 15 40.5196 15.1054 40.7071 15.2929C40.8946 15.4804 41 15.7348 41 16C41 16.2652 40.8946 16.5196 40.7071 16.7071C40.5196 16.8946 40.2652 17 40 17H38V19H54V17H44C43.7348 17 43.4804 16.8946 43.2929 16.7071C43.1054 16.5196 43 16.2652 43 16C43 15.7348 43.1054 15.4804 43.2929 15.2929C43.4804 15.1054 43.7348 15 44 15H55C55.2652 15 55.5196 15.1054 55.7071 15.2929C55.8946 15.4804 56 15.7348 56 16V20C56 20.2652 55.8946 20.5196 55.7071 20.7071C55.5196 20.8946 55.2652 21 55 21Z" fill="#222429"/>
<path d="M66 50H54C53.7348 50 53.4804 49.8946 53.2929 49.7071C53.1054 49.5196 53 49.2652 53 49V39C53 38.7348 53.1054 38.4804 53.2929 38.2929C53.4804 38.1054 53.7348 38 54 38H66C66.2652 38 66.5196 38.1054 66.7071 38.2929C66.8946 38.4804 67 38.7348 67 39V49C67 49.2652 66.8946 49.5196 66.7071 49.7071C66.5196 49.8946 66.2652 50 66 50ZM55 48H65V40H55V48Z" fill="#222429"/>
<path d="M54 60H42C41.7348 60 41.4804 59.8946 41.2929 59.7071C41.1054 59.5196 41 59.2652 41 59V49C41 48.7348 41.1054 48.4804 41.2929 48.2929C41.4804 48.1054 41.7348 48 42 48H54C54.2652 48 54.5196 48.1054 54.7071 48.2929C54.8946 48.4804 55 48.7348 55 49V59C55 59.2652 54.8946 59.5196 54.7071 59.7071C54.5196 59.8946 54.2652 60 54 60ZM43 58H53V50H43V58Z" fill="#222429"/>
<path d="M66 60H54C53.7348 60 53.4804 59.8946 53.2929 59.7071C53.1054 59.5196 53 59.2652 53 59V49C53 48.7348 53.1054 48.4804 53.2929 48.2929C53.4804 48.1054 53.7348 48 54 48H66C66.2652 48 66.5196 48.1054 66.7071 48.2929C66.8946 48.4804 67 48.7348 67 49V59C67 59.2652 66.8946 59.5196 66.7071 59.7071C66.5196 59.8946 66.2652 60 66 60ZM55 58H65V50H55V58Z" fill="#222429"/>
<path d="M48 52C47.7348 52 47.4804 51.8946 47.2929 51.7071C47.1054 51.5196 47 51.2652 47 51V49C47 48.7348 47.1054 48.4804 47.2929 48.2929C47.4804 48.1054 47.7348 48 48 48C48.2652 48 48.5196 48.1054 48.7071 48.2929C48.8946 48.4804 49 48.7348 49 49V51C49 51.2652 48.8946 51.5196 48.7071 51.7071C48.5196 51.8946 48.2652 52 48 52Z" fill="#222429"/>
<path d="M60 52C59.7348 52 59.4804 51.8946 59.2929 51.7071C59.1054 51.5196 59 51.2652 59 51V49C59 48.7348 59.1054 48.4804 59.2929 48.2929C59.4804 48.1054 59.7348 48 60 48C60.2652 48 60.5196 48.1054 60.7071 48.2929C60.8946 48.4804 61 48.7348 61 49V51C61 51.2652 60.8946 51.5196 60.7071 51.7071C60.5196 51.8946 60.2652 52 60 52Z" fill="#222429"/>
<path d="M60 42C59.7348 42 59.4804 41.8946 59.2929 41.7071C59.1054 41.5196 59 41.2652 59 41V39C59 38.7348 59.1054 38.4804 59.2929 38.2929C59.4804 38.1054 59.7348 38 60 38C60.2652 38 60.5196 38.1054 60.7071 38.2929C60.8946 38.4804 61 38.7348 61 39V41C61 41.2652 60.8946 41.5196 60.7071 41.7071C60.5196 41.8946 60.2652 42 60 42Z" fill="#222429"/>
<defs>
<linearGradient id="paint0_linear_3251_34518" x1="-7.95" y1="55.4194" x2="70.3503" y2="35.2976" gradientUnits="userSpaceOnUse">
<stop stop-color="#FDBC5B"/>
<stop offset="0.512843" stop-color="#FFB443"/>
<stop offset="1" stop-color="#FFC700"/>
</linearGradient>
</defs>
</svg>
