<svg width="72" height="80" viewBox="0 0 72 80" fill="none" xmlns="http://www.w3.org/2000/svg">
<rect width="48" height="48" rx="24" transform="matrix(-1 0 0 1 72 32)" fill="url(#paint0_linear_4123_43252)"/>
<path d="M59 60H33C32.7348 60 32.4804 59.8946 32.2929 59.7071C32.1054 59.5196 32 59.2652 32 59V16C32 15.7348 32.1054 15.4804 32.2929 15.2929C32.4804 15.1054 32.7348 15 33 15H59C59.2652 15 59.5196 15.1054 59.7071 15.2929C59.8946 15.4804 60 15.7348 60 16V59C60 59.2652 59.8946 59.5196 59.7071 59.7071C59.5196 59.8946 59.2652 60 59 60ZM34 58H58V17H34V58Z" fill="black"/>
<path d="M33 60H5C4.73478 60 4.48043 59.8946 4.29289 59.7071C4.10536 59.5196 4 59.2652 4 59V39C4 38.7348 4.10536 38.4804 4.29289 38.2929C4.48043 38.1054 4.73478 38 5 38H33C33.2652 38 33.5196 38.1054 33.7071 38.2929C33.8946 38.4804 34 38.7348 34 39V59C34 59.2652 33.8946 59.5196 33.7071 59.7071C33.5196 59.8946 33.2652 60 33 60ZM6 58H32V40H6V58Z" fill="black"/>
<path d="M33 40H9C8.73478 40 8.48043 39.8946 8.29289 39.7071C8.10536 39.5196 8 39.2652 8 39V28C8 27.7348 8.10536 27.4804 8.29289 27.2929C8.48043 27.1054 8.73478 27 9 27H33C33.2652 27 33.5196 27.1054 33.7071 27.2929C33.8946 27.4804 34 27.7348 34 28V39C34 39.2652 33.8946 39.5196 33.7071 39.7071C33.5196 39.8946 33.2652 40 33 40ZM10 38H32V29H10V38Z" fill="black"/>
<path d="M33 29H13C12.7348 29 12.4804 28.8946 12.2929 28.7071C12.1054 28.5196 12 28.2652 12 28V9C12 8.73478 12.1054 8.48043 12.2929 8.29289C12.4804 8.10536 12.7348 8 13 8H33C33.2652 8 33.5196 8.10536 33.7071 8.29289C33.8946 8.48043 34 8.73478 34 9V28C34 28.2652 33.8946 28.5196 33.7071 28.7071C33.5196 28.8946 33.2652 29 33 29ZM14 27H32V10H14V27Z" fill="black"/>
<path d="M47 17H33C32.7348 17 32.4804 16.8946 32.2929 16.7071C32.1054 16.5196 32 16.2652 32 16V5C32 4.73478 32.1054 4.48043 32.2929 4.29289C32.4804 4.10536 32.7348 4 33 4H47C47.2652 4 47.5196 4.10536 47.7071 4.29289C47.8946 4.48043 48 4.73478 48 5V16C48 16.2652 47.8946 16.5196 47.7071 16.7071C47.5196 16.8946 47.2652 17 47 17ZM34 15H46V6H34V15Z" fill="black"/>
<path d="M49 22H43C42.7348 22 42.4804 21.8946 42.2929 21.7071C42.1054 21.5196 42 21.2652 42 21V16C42 15.7348 42.1054 15.4804 42.2929 15.2929C42.4804 15.1054 42.7348 15 43 15H49C49.2652 15 49.5196 15.1054 49.7071 15.2929C49.8946 15.4804 50 15.7348 50 16V21C50 21.2652 49.8946 21.5196 49.7071 21.7071C49.5196 21.8946 49.2652 22 49 22ZM44 20H48V17H44V20Z" fill="black"/>
<path d="M54 56H50C49.7348 56 49.4804 55.8946 49.2929 55.7071C49.1054 55.5196 49 55.2652 49 55C49 54.7348 49.1054 54.4804 49.2929 54.2929C49.4804 54.1054 49.7348 54 50 54H54C54.2652 54 54.5196 54.1054 54.7071 54.2929C54.8946 54.4804 55 54.7348 55 55C55 55.2652 54.8946 55.5196 54.7071 55.7071C54.5196 55.8946 54.2652 56 54 56Z" fill="black"/>
<path d="M52 56C51.7348 56 51.4804 55.8946 51.2929 55.7071C51.1054 55.5196 51 55.2652 51 55V50C51 49.7348 51.1054 49.4804 51.2929 49.2929C51.4804 49.1054 51.7348 49 52 49C52.2652 49 52.5196 49.1054 52.7071 49.2929C52.8946 49.4804 53 49.7348 53 50V55C53 55.2652 52.8946 55.5196 52.7071 55.7071C52.5196 55.8946 52.2652 56 52 56Z" fill="black"/>
<path d="M53.9999 51.9999C53.8683 52.0007 53.7379 51.9755 53.616 51.9257C53.4942 51.8759 53.3834 51.8026 53.2899 51.7099L51.9999 50.4099L50.7099 51.7099C50.5216 51.8982 50.2662 52.004 49.9999 52.004C49.7336 52.004 49.4782 51.8982 49.2899 51.7099C49.1016 51.5216 48.9958 51.2662 48.9958 50.9999C48.9958 50.7336 49.1016 50.4782 49.2899 50.2899L51.2899 48.2899C51.3829 48.1962 51.4935 48.1218 51.6154 48.071C51.7372 48.0203 51.8679 47.9941 51.9999 47.9941C52.132 47.9941 52.2627 48.0203 52.3845 48.071C52.5064 48.1218 52.617 48.1962 52.7099 48.2899L54.7099 50.2899C54.8037 50.3829 54.8781 50.4935 54.9288 50.6154C54.9796 50.7372 55.0057 50.8679 55.0057 50.9999C55.0057 51.132 54.9796 51.2627 54.9288 51.3845C54.8781 51.5064 54.8037 51.617 54.7099 51.7099C54.6165 51.8026 54.5057 51.8759 54.3839 51.9257C54.262 51.9755 54.1315 52.0007 53.9999 51.9999Z" fill="black"/>
<path d="M55 43H49C48.7348 43 48.4804 42.8946 48.2929 42.7071C48.1054 42.5196 48 42.2652 48 42C48 40.9391 48.4214 39.9217 49.1716 39.1716C49.9217 38.4214 50.9391 38 52 38C53.0609 38 54.0783 38.4214 54.8284 39.1716C55.5786 39.9217 56 40.9391 56 42C56 42.2652 55.8946 42.5196 55.7071 42.7071C55.5196 42.8946 55.2652 43 55 43ZM50.27 41H53.73C53.5542 40.6969 53.3018 40.4453 52.9982 40.2705C52.6946 40.0956 52.3504 40.0035 52 40.0035C51.6496 40.0035 51.3054 40.0956 51.0018 40.2705C50.6982 40.4453 50.4458 40.6969 50.27 41Z" fill="black"/>
<path d="M50 47V45C50.2723 44.9798 50.5269 44.8571 50.7125 44.6567C50.898 44.4563 51.0008 44.1931 51 43.92V42C51 41.7348 51.1054 41.4804 51.2929 41.2929C51.4804 41.1054 51.7348 41 52 41C52.2652 41 52.5196 41.1054 52.7071 41.2929C52.8946 41.4804 53 41.7348 53 42V43.92C53.0003 44.7232 52.6868 45.4947 52.1264 46.0701C51.5659 46.6455 50.8029 46.9791 50 47Z" fill="black"/>
<path d="M52 34C51.2044 34 50.4413 33.6839 49.8787 33.1213C49.3161 32.5587 49 31.7956 49 31V28C49 27.7348 49.1054 27.4804 49.2929 27.2929C49.4804 27.1054 49.7348 27 50 27H54C54.2652 27 54.5196 27.1054 54.7071 27.2929C54.8946 27.4804 55 27.7348 55 28V31C55 31.7956 54.6839 32.5587 54.1213 33.1213C53.5587 33.6839 52.7956 34 52 34ZM51 29V31C51 31.2652 51.1054 31.5196 51.2929 31.7071C51.4804 31.8946 51.7348 32 52 32C52.2652 32 52.5196 31.8946 52.7071 31.7071C52.8946 31.5196 53 31.2652 53 31V29H51Z" fill="black"/>
<path d="M52 37C51.7348 37 51.4804 36.8946 51.2929 36.7071C51.1054 36.5196 51 36.2652 51 36V33C51 32.7348 51.1054 32.4804 51.2929 32.2929C51.4804 32.1054 51.7348 32 52 32C52.2652 32 52.5196 32.1054 52.7071 32.2929C52.8946 32.4804 53 32.7348 53 33V36C53 36.2652 52.8946 36.5196 52.7071 36.7071C52.5196 36.8946 52.2652 37 52 37Z" fill="black"/>
<path d="M53 37H51C50.7348 37 50.4804 36.8946 50.2929 36.7071C50.1054 36.5196 50 36.2652 50 36C50 35.7348 50.1054 35.4804 50.2929 35.2929C50.4804 35.1054 50.7348 35 51 35H53C53.2652 35 53.5196 35.1054 53.7071 35.2929C53.8946 35.4804 54 35.7348 54 36C54 36.2652 53.8946 36.5196 53.7071 36.7071C53.5196 36.8946 53.2652 37 53 37Z" fill="black"/>
<path d="M22 47H16C15.7348 47 15.4804 46.8946 15.2929 46.7071C15.1054 46.5196 15 46.2652 15 46V39C15 38.7348 15.1054 38.4804 15.2929 38.2929C15.4804 38.1054 15.7348 38 16 38H22C22.2652 38 22.5196 38.1054 22.7071 38.2929C22.8946 38.4804 23 38.7348 23 39V46C23 46.2652 22.8946 46.5196 22.7071 46.7071C22.5196 46.8946 22.2652 47 22 47ZM17 45H21V40H17V45Z" fill="black"/>
<path d="M24 34H18C17.7348 34 17.4804 33.8946 17.2929 33.7071C17.1054 33.5196 17 33.2652 17 33V28C17 27.7348 17.1054 27.4804 17.2929 27.2929C17.4804 27.1054 17.7348 27 18 27H24C24.2652 27 24.5196 27.1054 24.7071 27.2929C24.8946 27.4804 25 27.7348 25 28V33C25 33.2652 24.8946 33.5196 24.7071 33.7071C24.5196 33.8946 24.2652 34 24 34ZM19 32H23V29H19V32Z" fill="black"/>
<path d="M26 15H21C20.7348 15 20.4804 14.8946 20.2929 14.7071C20.1054 14.5196 20 14.2652 20 14V9C20 8.73478 20.1054 8.48043 20.2929 8.29289C20.4804 8.10536 20.7348 8 21 8H26C26.2652 8 26.5196 8.10536 26.7071 8.29289C26.8946 8.48043 27 8.73478 27 9V14C27 14.2652 26.8946 14.5196 26.7071 14.7071C26.5196 14.8946 26.2652 15 26 15ZM22 13H25V10H22V13Z" fill="black"/>
<path d="M42 10H38C37.7348 10 37.4804 9.89464 37.2929 9.70711C37.1054 9.51957 37 9.26522 37 9V5C37 4.73478 37.1054 4.48043 37.2929 4.29289C37.4804 4.10536 37.7348 4 38 4H42C42.2652 4 42.5196 4.10536 42.7071 4.29289C42.8946 4.48043 43 4.73478 43 5V9C43 9.26522 42.8946 9.51957 42.7071 9.70711C42.5196 9.89464 42.2652 10 42 10ZM39 8H41V6H39V8Z" fill="black"/>
<path d="M13 56H9C8.73478 56 8.48043 55.8946 8.29289 55.7071C8.10536 55.5196 8 55.2652 8 55C8 54.7348 8.10536 54.4804 8.29289 54.2929C8.48043 54.1054 8.73478 54 9 54H13C13.2652 54 13.5196 54.1054 13.7071 54.2929C13.8946 54.4804 14 54.7348 14 55C14 55.2652 13.8946 55.5196 13.7071 55.7071C13.5196 55.8946 13.2652 56 13 56Z" fill="black"/>
<path d="M13 52H9C8.73478 52 8.48043 51.8946 8.29289 51.7071C8.10536 51.5196 8 51.2652 8 51C8 50.7348 8.10536 50.4804 8.29289 50.2929C8.48043 50.1054 8.73478 50 9 50H13C13.2652 50 13.5196 50.1054 13.7071 50.2929C13.8946 50.4804 14 50.7348 14 51C14 51.2652 13.8946 51.5196 13.7071 51.7071C13.5196 51.8946 13.2652 52 13 52Z" fill="black"/>
<path d="M21 25H17C16.7348 25 16.4804 24.8946 16.2929 24.7071C16.1054 24.5196 16 24.2652 16 24C16 23.7348 16.1054 23.4804 16.2929 23.2929C16.4804 23.1054 16.7348 23 17 23H21C21.2652 23 21.5196 23.1054 21.7071 23.2929C21.8946 23.4804 22 23.7348 22 24C22 24.2652 21.8946 24.5196 21.7071 24.7071C21.5196 24.8946 21.2652 25 21 25Z" fill="black"/>
<path d="M41 56H37C36.7348 56 36.4804 55.8946 36.2929 55.7071C36.1054 55.5196 36 55.2652 36 55C36 54.7348 36.1054 54.4804 36.2929 54.2929C36.4804 54.1054 36.7348 54 37 54H41C41.2652 54 41.5196 54.1054 41.7071 54.2929C41.8946 54.4804 42 54.7348 42 55C42 55.2652 41.8946 55.5196 41.7071 55.7071C41.5196 55.8946 41.2652 56 41 56Z" fill="black"/>
<path d="M41 52H37C36.7348 52 36.4804 51.8946 36.2929 51.7071C36.1054 51.5196 36 51.2652 36 51C36 50.7348 36.1054 50.4804 36.2929 50.2929C36.4804 50.1054 36.7348 50 37 50H41C41.2652 50 41.5196 50.1054 41.7071 50.2929C41.8946 50.4804 42 50.7348 42 51C42 51.2652 41.8946 51.5196 41.7071 51.7071C41.5196 51.8946 41.2652 52 41 52Z" fill="black"/>
<defs>
<linearGradient id="paint0_linear_4123_43252" x1="-7.95" y1="55.4194" x2="70.3503" y2="35.2976" gradientUnits="userSpaceOnUse">
<stop stop-color="#FDBC5B"/>
<stop offset="0.512843" stop-color="#FFB443"/>
<stop offset="1" stop-color="#FFC700"/>
</linearGradient>
</defs>
</svg>
